<?xml version="1.0" encoding="UTF-8" standalone="no"?><svg xmlns="http://www.w3.org/2000/svg" xmlns:xlink="http://www.w3.org/1999/xlink" contentScriptType="application/ecmascript" contentStyleType="text/css" height="487px" preserveAspectRatio="none" style="width:683px;height:487px;" version="1.1" viewBox="0 0 683 487" width="683px" zoomAndPan="magnify"><defs><filter height="300%" id="f498zb5" width="300%" x="-1" y="-1"><feGaussianBlur result="blurOut" stdDeviation="2.0"/><feColorMatrix in="blurOut" result="blurOut2" type="matrix" values="0 0 0 0 0 0 0 0 0 0 0 0 0 0 0 0 0 0 .4 0"/><feOffset dx="4.0" dy="4.0" in="blurOut2" result="blurOut3"/><feBlend in="SourceGraphic" in2="blurOut3" mode="normal"/></filter></defs><g><!--class server--><rect fill="#F8F8F8" filter="url(#f498zb5)" height="99.2188" style="stroke: #383838; stroke-width: 1.5;" width="229" x="183.75" y="14.5"/><ellipse cx="274.5" cy="30.5" fill="#C2C2C2" rx="11" ry="11" style="stroke: #383838; stroke-width: 1.0;"/><path d="M269.5,31.6563 C269.5,34.1563 271.6406,35.9688 274.5625,35.9688 C275.7969,35.9688 276.9688,35.6719 277.7188,35.1563 C278.3281,34.7344 278.6563,34.3125 278.6563,33.9063 C278.6563,33.4375 278.2344,33.0313 277.7344,33.0313 C277.5,33.0313 277.2813,33.1094 277.0781,33.3125 C276.6406,33.75 276.6406,33.75 276.4688,33.8438 C276.0156,34.0781 275.375,34.2188 274.6094,34.2188 C272.6094,34.2188 271.3281,33.2031 271.3281,31.625 L271.3281,30.5781 C271.3281,28.875 272.5469,27.6719 274.25,27.6719 C274.8281,27.6719 275.4063,27.8125 275.875,28.0625 C276.3438,28.3281 276.5156,28.5156 276.5781,28.875 C276.7031,29.5469 276.9531,29.7969 277.4844,29.7969 C277.7656,29.7969 278.0469,29.6563 278.2344,29.4375 C278.3594,29.2656 278.4063,29.0938 278.4063,28.6563 L278.4063,27.2969 C278.4063,26.875 278.3906,26.7344 278.2656,26.5625 C278.0938,26.3125 277.8125,26.1563 277.4844,26.1563 C277.1719,26.1563 276.9688,26.2656 276.75,26.5313 C275.5781,26.0313 275.1406,25.9219 274.1875,25.9219 C271.5156,25.9219 269.5,27.9375 269.5,30.5625 L269.5,31.6563 Z "/><text fill="#000000" font-family="sans-serif" font-size="12" lengthAdjust="spacingAndGlyphs" textLength="39" x="295" y="34.6543">server</text><line style="stroke: #383838; stroke-width: 1.5;" x1="184.75" x2="411.75" y1="46.5" y2="46.5"/><text fill="#000000" font-family="sans-serif" font-size="11" lengthAdjust="spacingAndGlyphs" textLength="78" x="189.75" y="60.7104">char* method</text><text fill="#000000" font-family="sans-serif" font-size="11" lengthAdjust="spacingAndGlyphs" textLength="54" x="189.75" y="73.5151">char* key</text><text fill="#000000" font-family="sans-serif" font-size="11" lengthAdjust="spacingAndGlyphs" textLength="101" x="189.75" y="86.3198">char* server_port</text><line style="stroke: #383838; stroke-width: 1.5;" x1="184.75" x2="411.75" y1="92.9141" y2="92.9141"/><text fill="#000000" font-family="sans-serif" font-size="11" lengthAdjust="spacingAndGlyphs" textLength="217" x="189.75" y="107.1245">receive_coded_message_from_client()</text><!--class client--><rect fill="#F8F8F8" filter="url(#f498zb5)" height="112.0234" style="stroke: #383838; stroke-width: 1.5;" width="207" x="447.75" y="8"/><ellipse cx="530" cy="24" fill="#C2C2C2" rx="11" ry="11" style="stroke: #383838; stroke-width: 1.0;"/><path d="M525,25.1563 C525,27.6563 527.1406,29.4688 530.0625,29.4688 C531.2969,29.4688 532.4688,29.1719 533.2188,28.6563 C533.8281,28.2344 534.1563,27.8125 534.1563,27.4063 C534.1563,26.9375 533.7344,26.5313 533.2344,26.5313 C533,26.5313 532.7813,26.6094 532.5781,26.8125 C532.1406,27.25 532.1406,27.25 531.9688,27.3438 C531.5156,27.5781 530.875,27.7188 530.1094,27.7188 C528.1094,27.7188 526.8281,26.7031 526.8281,25.125 L526.8281,24.0781 C526.8281,22.375 528.0469,21.1719 529.75,21.1719 C530.3281,21.1719 530.9063,21.3125 531.375,21.5625 C531.8438,21.8281 532.0156,22.0156 532.0781,22.375 C532.2031,23.0469 532.4531,23.2969 532.9844,23.2969 C533.2656,23.2969 533.5469,23.1563 533.7344,22.9375 C533.8594,22.7656 533.9063,22.5938 533.9063,22.1563 L533.9063,20.7969 C533.9063,20.375 533.8906,20.2344 533.7656,20.0625 C533.5938,19.8125 533.3125,19.6563 532.9844,19.6563 C532.6719,19.6563 532.4688,19.7656 532.25,20.0313 C531.0781,19.5313 530.6406,19.4219 529.6875,19.4219 C527.0156,19.4219 525,21.4375 525,24.0625 L525,25.1563 Z "/><text fill="#000000" font-family="sans-serif" font-size="12" lengthAdjust="spacingAndGlyphs" textLength="34" x="550.5" y="28.1543">client</text><line style="stroke: #383838; stroke-width: 1.5;" x1="448.75" x2="653.75" y1="40" y2="40"/><text fill="#000000" font-family="sans-serif" font-size="11" lengthAdjust="spacingAndGlyphs" textLength="78" x="453.75" y="54.2104">char* method</text><text fill="#000000" font-family="sans-serif" font-size="11" lengthAdjust="spacingAndGlyphs" textLength="54" x="453.75" y="67.0151">char* key</text><text fill="#000000" font-family="sans-serif" font-size="11" lengthAdjust="spacingAndGlyphs" textLength="101" x="453.75" y="79.8198">char* server_port</text><text fill="#000000" font-family="sans-serif" font-size="11" lengthAdjust="spacingAndGlyphs" textLength="103" x="453.75" y="92.6245">char* server_host</text><line style="stroke: #383838; stroke-width: 1.5;" x1="448.75" x2="653.75" y1="99.2188" y2="99.2188"/><text fill="#000000" font-family="sans-serif" font-size="11" lengthAdjust="spacingAndGlyphs" textLength="195" x="453.75" y="113.4292">send_coded_message_to_server()</text><!--class socket--><rect fill="#F8F8F8" filter="url(#f498zb5)" height="124.8281" style="stroke: #383838; stroke-width: 1.5;" width="151" x="395.75" y="180.5"/><ellipse cx="446" cy="196.5" fill="#C2C2C2" rx="11" ry="11" style="stroke: #383838; stroke-width: 1.0;"/><path d="M441,197.6563 C441,200.1563 443.1406,201.9688 446.0625,201.9688 C447.2969,201.9688 448.4688,201.6719 449.2188,201.1563 C449.8281,200.7344 450.1563,200.3125 450.1563,199.9063 C450.1563,199.4375 449.7344,199.0313 449.2344,199.0313 C449,199.0313 448.7813,199.1094 448.5781,199.3125 C448.1406,199.75 448.1406,199.75 447.9688,199.8438 C447.5156,200.0781 446.875,200.2188 446.1094,200.2188 C444.1094,200.2188 442.8281,199.2031 442.8281,197.625 L442.8281,196.5781 C442.8281,194.875 444.0469,193.6719 445.75,193.6719 C446.3281,193.6719 446.9063,193.8125 447.375,194.0625 C447.8438,194.3281 448.0156,194.5156 448.0781,194.875 C448.2031,195.5469 448.4531,195.7969 448.9844,195.7969 C449.2656,195.7969 449.5469,195.6563 449.7344,195.4375 C449.8594,195.2656 449.9063,195.0938 449.9063,194.6563 L449.9063,193.2969 C449.9063,192.875 449.8906,192.7344 449.7656,192.5625 C449.5938,192.3125 449.3125,192.1563 448.9844,192.1563 C448.6719,192.1563 448.4688,192.2656 448.25,192.5313 C447.0781,192.0313 446.6406,191.9219 445.6875,191.9219 C443.0156,191.9219 441,193.9375 441,196.5625 L441,197.6563 Z "/><text fill="#000000" font-family="sans-serif" font-size="12" lengthAdjust="spacingAndGlyphs" textLength="42" x="466.5" y="200.6543">socket</text><line style="stroke: #383838; stroke-width: 1.5;" x1="396.75" x2="545.75" y1="212.5" y2="212.5"/><text fill="#000000" font-family="sans-serif" font-size="11" lengthAdjust="spacingAndGlyphs" textLength="29" x="401.75" y="226.7104">int fd</text><line style="stroke: #383838; stroke-width: 1.5;" x1="396.75" x2="545.75" y1="233.3047" y2="233.3047"/><text fill="#000000" font-family="sans-serif" font-size="11" lengthAdjust="spacingAndGlyphs" textLength="139" x="401.75" y="247.5151">socket_bind_and_listen()</text><text fill="#000000" font-family="sans-serif" font-size="11" lengthAdjust="spacingAndGlyphs" textLength="88" x="401.75" y="260.3198">socket_accept()</text><text fill="#000000" font-family="sans-serif" font-size="11" lengthAdjust="spacingAndGlyphs" textLength="95" x="401.75" y="273.1245">socket_connect()</text><text fill="#000000" font-family="sans-serif" font-size="11" lengthAdjust="spacingAndGlyphs" textLength="79" x="401.75" y="285.9292">socket_send()</text><text fill="#000000" font-family="sans-serif" font-size="11" lengthAdjust="spacingAndGlyphs" textLength="92" x="401.75" y="298.7339">socket_receive()</text><!--class file_coder--><rect fill="#F8F8F8" filter="url(#f498zb5)" height="73.6094" style="stroke: #383838; stroke-width: 1.5;" width="92" x="582" y="206"/><ellipse cx="597" cy="222" fill="#C2C2C2" rx="11" ry="11" style="stroke: #383838; stroke-width: 1.0;"/><path d="M592,223.1563 C592,225.6563 594.1406,227.4688 597.0625,227.4688 C598.2969,227.4688 599.4688,227.1719 600.2188,226.6563 C600.8281,226.2344 601.1563,225.8125 601.1563,225.4063 C601.1563,224.9375 600.7344,224.5313 600.2344,224.5313 C600,224.5313 599.7813,224.6094 599.5781,224.8125 C599.1406,225.25 599.1406,225.25 598.9688,225.3438 C598.5156,225.5781 597.875,225.7188 597.1094,225.7188 C595.1094,225.7188 593.8281,224.7031 593.8281,223.125 L593.8281,222.0781 C593.8281,220.375 595.0469,219.1719 596.75,219.1719 C597.3281,219.1719 597.9063,219.3125 598.375,219.5625 C598.8438,219.8281 599.0156,220.0156 599.0781,220.375 C599.2031,221.0469 599.4531,221.2969 599.9844,221.2969 C600.2656,221.2969 600.5469,221.1563 600.7344,220.9375 C600.8594,220.7656 600.9063,220.5938 600.9063,220.1563 L600.9063,218.7969 C600.9063,218.375 600.8906,218.2344 600.7656,218.0625 C600.5938,217.8125 600.3125,217.6563 599.9844,217.6563 C599.6719,217.6563 599.4688,217.7656 599.25,218.0313 C598.0781,217.5313 597.6406,217.4219 596.6875,217.4219 C594.0156,217.4219 592,219.4375 592,222.0625 L592,223.1563 Z "/><text fill="#000000" font-family="sans-serif" font-size="12" lengthAdjust="spacingAndGlyphs" textLength="60" x="611" y="226.1543">file_coder</text><line style="stroke: #383838; stroke-width: 1.5;" x1="583" x2="673" y1="238" y2="238"/><text fill="#000000" font-family="sans-serif" font-size="11" lengthAdjust="spacingAndGlyphs" textLength="43" x="588" y="252.2104">FILE* fp</text><line style="stroke: #383838; stroke-width: 1.5;" x1="583" x2="673" y1="258.8047" y2="258.8047"/><text fill="#000000" font-family="sans-serif" font-size="11" lengthAdjust="spacingAndGlyphs" textLength="58" x="588" y="273.0151">code_file()</text><!--class cesar--><rect fill="#F8F8F8" filter="url(#f498zb5)" height="86.4141" style="stroke: #383838; stroke-width: 1.5;" width="99" x="394.75" y="379"/><ellipse cx="424.15" cy="395" fill="#C2C2C2" rx="11" ry="11" style="stroke: #383838; stroke-width: 1.0;"/><path d="M419.15,396.1563 C419.15,398.6563 421.2906,400.4688 424.2125,400.4688 C425.4469,400.4688 426.6188,400.1719 427.3688,399.6563 C427.9781,399.2344 428.3063,398.8125 428.3063,398.4063 C428.3063,397.9375 427.8844,397.5313 427.3844,397.5313 C427.15,397.5313 426.9313,397.6094 426.7281,397.8125 C426.2906,398.25 426.2906,398.25 426.1188,398.3438 C425.6656,398.5781 425.025,398.7188 424.2594,398.7188 C422.2594,398.7188 420.9781,397.7031 420.9781,396.125 L420.9781,395.0781 C420.9781,393.375 422.1969,392.1719 423.9,392.1719 C424.4781,392.1719 425.0563,392.3125 425.525,392.5625 C425.9938,392.8281 426.1656,393.0156 426.2281,393.375 C426.3531,394.0469 426.6031,394.2969 427.1344,394.2969 C427.4156,394.2969 427.6969,394.1563 427.8844,393.9375 C428.0094,393.7656 428.0563,393.5938 428.0563,393.1563 L428.0563,391.7969 C428.0563,391.375 428.0406,391.2344 427.9156,391.0625 C427.7438,390.8125 427.4625,390.6563 427.1344,390.6563 C426.8219,390.6563 426.6188,390.7656 426.4,391.0313 C425.2281,390.5313 424.7906,390.4219 423.8375,390.4219 C421.1656,390.4219 419.15,392.4375 419.15,395.0625 L419.15,396.1563 Z "/><text fill="#000000" font-family="sans-serif" font-size="12" lengthAdjust="spacingAndGlyphs" textLength="35" x="441.35" y="399.1543">cesar</text><line style="stroke: #383838; stroke-width: 1.5;" x1="395.75" x2="492.75" y1="411" y2="411"/><text fill="#000000" font-family="sans-serif" font-size="11" lengthAdjust="spacingAndGlyphs" textLength="37" x="400.75" y="425.2104">int key</text><line style="stroke: #383838; stroke-width: 1.5;" x1="395.75" x2="492.75" y1="431.8047" y2="431.8047"/><text fill="#000000" font-family="sans-serif" font-size="11" lengthAdjust="spacingAndGlyphs" textLength="73" x="400.75" y="446.0151">cesar_code()</text><text fill="#000000" font-family="sans-serif" font-size="11" lengthAdjust="spacingAndGlyphs" textLength="87" x="400.75" y="458.8198">cesar_decode()</text><!--class vigenere--><rect fill="#F8F8F8" filter="url(#f498zb5)" height="112.0234" style="stroke: #383838; stroke-width: 1.5;" width="122" x="237" y="366"/><ellipse cx="268.2" cy="382" fill="#C2C2C2" rx="11" ry="11" style="stroke: #383838; stroke-width: 1.0;"/><path d="M263.2,383.1563 C263.2,385.6563 265.3406,387.4688 268.2625,387.4688 C269.4969,387.4688 270.6688,387.1719 271.4188,386.6563 C272.0281,386.2344 272.3563,385.8125 272.3563,385.4063 C272.3563,384.9375 271.9344,384.5313 271.4344,384.5313 C271.2,384.5313 270.9813,384.6094 270.7781,384.8125 C270.3406,385.25 270.3406,385.25 270.1688,385.3438 C269.7156,385.5781 269.075,385.7188 268.3094,385.7188 C266.3094,385.7188 265.0281,384.7031 265.0281,383.125 L265.0281,382.0781 C265.0281,380.375 266.2469,379.1719 267.95,379.1719 C268.5281,379.1719 269.1063,379.3125 269.575,379.5625 C270.0438,379.8281 270.2156,380.0156 270.2781,380.375 C270.4031,381.0469 270.6531,381.2969 271.1844,381.2969 C271.4656,381.2969 271.7469,381.1563 271.9344,380.9375 C272.0594,380.7656 272.1063,380.5938 272.1063,380.1563 L272.1063,378.7969 C272.1063,378.375 272.0906,378.2344 271.9656,378.0625 C271.7938,377.8125 271.5125,377.6563 271.1844,377.6563 C270.8719,377.6563 270.6688,377.7656 270.45,378.0313 C269.2781,377.5313 268.8406,377.4219 267.8875,377.4219 C265.2156,377.4219 263.2,379.4375 263.2,382.0625 L263.2,383.1563 Z "/><text fill="#000000" font-family="sans-serif" font-size="12" lengthAdjust="spacingAndGlyphs" textLength="54" x="285.8" y="386.1543">vigenere</text><line style="stroke: #383838; stroke-width: 1.5;" x1="238" x2="358" y1="398" y2="398"/><text fill="#000000" font-family="sans-serif" font-size="11" lengthAdjust="spacingAndGlyphs" textLength="110" x="243" y="412.2104">unsigned char* key</text><text fill="#000000" font-family="sans-serif" font-size="11" lengthAdjust="spacingAndGlyphs" textLength="78" x="243" y="425.0151">size_t len_key</text><text fill="#000000" font-family="sans-serif" font-size="11" lengthAdjust="spacingAndGlyphs" textLength="64" x="243" y="437.8198">int pos_key</text><line style="stroke: #383838; stroke-width: 1.5;" x1="238" x2="358" y1="444.4141" y2="444.4141"/><text fill="#000000" font-family="sans-serif" font-size="11" lengthAdjust="spacingAndGlyphs" textLength="90" x="243" y="458.6245">vigenere_code()</text><text fill="#000000" font-family="sans-serif" font-size="11" lengthAdjust="spacingAndGlyphs" textLength="104" x="243" y="471.4292">vigenere_decode()</text><!--class rc4--><rect fill="#F8F8F8" filter="url(#f498zb5)" height="99.2188" style="stroke: #383838; stroke-width: 1.5;" width="196" x="6" y="372.5"/><ellipse cx="89.75" cy="388.5" fill="#C2C2C2" rx="11" ry="11" style="stroke: #383838; stroke-width: 1.0;"/><path d="M84.75,389.6563 C84.75,392.1563 86.8906,393.9688 89.8125,393.9688 C91.0469,393.9688 92.2188,393.6719 92.9688,393.1563 C93.5781,392.7344 93.9063,392.3125 93.9063,391.9063 C93.9063,391.4375 93.4844,391.0313 92.9844,391.0313 C92.75,391.0313 92.5313,391.1094 92.3281,391.3125 C91.8906,391.75 91.8906,391.75 91.7188,391.8438 C91.2656,392.0781 90.625,392.2188 89.8594,392.2188 C87.8594,392.2188 86.5781,391.2031 86.5781,389.625 L86.5781,388.5781 C86.5781,386.875 87.7969,385.6719 89.5,385.6719 C90.0781,385.6719 90.6563,385.8125 91.125,386.0625 C91.5938,386.3281 91.7656,386.5156 91.8281,386.875 C91.9531,387.5469 92.2031,387.7969 92.7344,387.7969 C93.0156,387.7969 93.2969,387.6563 93.4844,387.4375 C93.6094,387.2656 93.6563,387.0938 93.6563,386.6563 L93.6563,385.2969 C93.6563,384.875 93.6406,384.7344 93.5156,384.5625 C93.3438,384.3125 93.0625,384.1563 92.7344,384.1563 C92.4219,384.1563 92.2188,384.2656 92,384.5313 C90.8281,384.0313 90.3906,383.9219 89.4375,383.9219 C86.7656,383.9219 84.75,385.9375 84.75,388.5625 L84.75,389.6563 Z "/><text fill="#000000" font-family="sans-serif" font-size="12" lengthAdjust="spacingAndGlyphs" textLength="20" x="110.25" y="392.6543">rc4</text><line style="stroke: #383838; stroke-width: 1.5;" x1="7" x2="201" y1="404.5" y2="404.5"/><text fill="#000000" font-family="sans-serif" font-size="11" lengthAdjust="spacingAndGlyphs" textLength="184" x="12" y="418.7104">unsigned char state_vector[256]</text><text fill="#000000" font-family="sans-serif" font-size="11" lengthAdjust="spacingAndGlyphs" textLength="88" x="12" y="431.5151">unsigned char i</text><text fill="#000000" font-family="sans-serif" font-size="11" lengthAdjust="spacingAndGlyphs" textLength="88" x="12" y="444.3198">unsigned char j</text><line style="stroke: #383838; stroke-width: 1.5;" x1="7" x2="201" y1="450.9141" y2="450.9141"/><text fill="#000000" font-family="sans-serif" font-size="11" lengthAdjust="spacingAndGlyphs" textLength="59" x="12" y="465.1245">rc4_code()</text><!--class coder_selector--><rect fill="#F8F8F8" filter="url(#f498zb5)" height="48" style="stroke: #383838; stroke-width: 1.5;" width="125" x="235.75" y="219"/><ellipse cx="250.75" cy="235" fill="#C2C2C2" rx="11" ry="11" style="stroke: #383838; stroke-width: 1.0;"/><path d="M245.75,236.1563 C245.75,238.6563 247.8906,240.4688 250.8125,240.4688 C252.0469,240.4688 253.2188,240.1719 253.9688,239.6563 C254.5781,239.2344 254.9063,238.8125 254.9063,238.4063 C254.9063,237.9375 254.4844,237.5313 253.9844,237.5313 C253.75,237.5313 253.5313,237.6094 253.3281,237.8125 C252.8906,238.25 252.8906,238.25 252.7188,238.3438 C252.2656,238.5781 251.625,238.7188 250.8594,238.7188 C248.8594,238.7188 247.5781,237.7031 247.5781,236.125 L247.5781,235.0781 C247.5781,233.375 248.7969,232.1719 250.5,232.1719 C251.0781,232.1719 251.6563,232.3125 252.125,232.5625 C252.5938,232.8281 252.7656,233.0156 252.8281,233.375 C252.9531,234.0469 253.2031,234.2969 253.7344,234.2969 C254.0156,234.2969 254.2969,234.1563 254.4844,233.9375 C254.6094,233.7656 254.6563,233.5938 254.6563,233.1563 L254.6563,231.7969 C254.6563,231.375 254.6406,231.2344 254.5156,231.0625 C254.3438,230.8125 254.0625,230.6563 253.7344,230.6563 C253.4219,230.6563 253.2188,230.7656 253,231.0313 C251.8281,230.5313 251.3906,230.4219 250.4375,230.4219 C247.7656,230.4219 245.75,232.4375 245.75,235.0625 L245.75,236.1563 Z "/><text fill="#000000" font-family="sans-serif" font-size="12" lengthAdjust="spacingAndGlyphs" textLength="93" x="264.75" y="239.1543">coder_selector</text><line style="stroke: #383838; stroke-width: 1.5;" x1="236.75" x2="359.75" y1="251" y2="251"/><line style="stroke: #383838; stroke-width: 1.5;" x1="236.75" x2="359.75" y1="259" y2="259"/><path d="M580.181,132.078 C591.061,157.088 602.997,184.526 612.223,205.733 " fill="none" style="stroke: #383838; stroke-width: 1.0;"/><polygon fill="#FFFFFF" points="574.941,120.034,573.6673,127.1317,579.7292,131.0373,581.0029,123.9396,574.941,120.034" style="stroke: #383838; stroke-width: 1.0;"/><path d="M354.897,123.212 C372.796,141.525 392.618,161.806 410.742,180.349 " fill="none" style="stroke: #383838; stroke-width: 1.0;"/><polygon fill="#383838" points="345.731,113.835,347.0644,120.9218,354.1188,122.4166,352.7855,115.3299,345.731,113.835" style="stroke: #383838; stroke-width: 1.0;"/><path d="M520.752,131.924 C513.589,147.772 505.982,164.603 498.927,180.21 " fill="none" style="stroke: #383838; stroke-width: 1.0;"/><polygon fill="#383838" points="526.126,120.034,520.0098,123.8539,521.1834,130.9689,527.2997,127.149,526.126,120.034" style="stroke: #383838; stroke-width: 1.0;"/><path d="M262.793,276.122 C233.321,303.011 190.809,341.798 157.188,372.473 " fill="none" style="stroke: #383838; stroke-width: 1.0;"/><polygon fill="#383838" points="272.638,267.14,265.5095,268.2286,263.7726,275.2274,270.9011,274.1388,272.638,267.14" style="stroke: #383838; stroke-width: 1.0;"/><path d="M298,280.224 C298,304.868 298,337.941 298,365.838 " fill="none" style="stroke: #383838; stroke-width: 1.0;"/><polygon fill="#383838" points="298,267.14,294,273.14,298,279.14,302,273.14,298,267.14" style="stroke: #383838; stroke-width: 1.0;"/><path d="M325.619,277.484 C349.341,306.242 383.659,347.847 409.244,378.8641 " fill="none" style="stroke: #383838; stroke-width: 1.0;"/><polygon fill="#383838" points="317.087,267.14,317.8189,274.3139,324.7224,276.3975,323.9905,269.2236,317.087,267.14" style="stroke: #383838; stroke-width: 1.0;"/><path d="M454.242,127.531 C429.165,144.223 402.366,162.495 378,180 C360.733,192.405 341.916,206.935 326.872,218.809 " fill="none" style="stroke: #383838; stroke-width: 1.0;"/><polygon fill="#FFFFFF" points="465.248,120.232,458.0369,120.2149,455.2476,126.8646,462.4587,126.8818,465.248,120.232" style="stroke: #383838; stroke-width: 1.0;"/><path d="M298,127.064 C298,158.769 298,195.458 298,218.691 " fill="none" style="stroke: #383838; stroke-width: 1.0;"/><polygon fill="#FFFFFF" points="298,113.835,294,119.835,298,125.835,302,119.835,298,113.835" style="stroke: #383838; stroke-width: 1.0;"/></g>
<g transform="translate(0.000000,17.000000) scale(0.100000,-0.100000)"
fill="#000000" stroke="none">
<path d="M21 157 c-29 -35 -16 -97 20 -97 15 0 19 -5 15 -16 -3 -9 -6 -20 -6
-25 0 -5 -4 -9 -10 -9 -14 0 -12 27 3 33 6 3 2 6 -10 6 -30 1 -31 -35 -3 -44
28 -9 47 9 55 51 3 20 9 42 12 50 3 8 -1 14 -11 14 -9 0 -16 -8 -16 -19 0 -26
-15 -34 -30 -16 -13 16 -6 48 16 70 14 13 13 15 -4 15 -11 0 -25 -6 -31 -13z"/>
<path d="M80 150 c0 -13 5 -20 13 -17 6 2 12 10 12 17 0 7 -6 15 -12 18 -8 2
-13 -5 -13 -18z"/>
<path d="M347 164 c-13 -13 -7 -24 14 -24 11 0 19 5 17 12 -5 14 -22 21 -31
12z"/>
<path d="M103 85 c-9 -40 -8 -45 8 -45 13 0 19 9 21 33 2 24 7 31 21 29 10 -2
17 3 17 13 0 10 -9 15 -28 15 -26 0 -30 -5 -39 -45z"/>
<path d="M175 101 c-24 -48 -13 -59 64 -60 63 -1 69 1 79 25 15 31 15 64 1 64
-6 0 -8 -8 -5 -18 4 -10 -1 -27 -10 -38 -14 -18 -15 -17 -9 19 5 29 3 37 -9
37 -9 0 -18 -13 -22 -35 -3 -19 -10 -35 -14 -35 -4 0 -4 16 0 35 8 35 8 35
-26 35 -27 0 -36 -6 -49 -29z m47 -6 c-5 -28 -22 -44 -22 -21 0 21 11 46 20
46 4 0 5 -11 2 -25z"/>
<path d="M340 116 c0 -7 -3 -28 -6 -45 -6 -26 -3 -31 13 -31 10 0 25 6 32 12
11 10 13 10 7 1 -5 -9 3 -13 28 -13 25 0 36 4 36 15 0 8 -4 15 -10 15 -5 0
-10 -4 -10 -10 0 -5 -5 -10 -11 -10 -6 0 -2 12 9 28 36 51 36 52 -2 52 -25 0
-36 -4 -36 -15 0 -8 5 -15 10 -15 6 0 10 5 10 12 0 6 3 9 6 6 9 -10 -19 -46
-39 -52 -17 -4 -18 -1 -13 30 6 27 4 34 -9 34 -8 0 -15 -6 -15 -14z"/>
<path d="M472 118 c-7 -7 -12 -27 -12 -46 0 -30 2 -33 27 -30 17 2 32 12 39
27 7 13 18 28 26 33 10 8 9 8 -4 4 -12 -3 -18 0 -18 9 0 18 -41 20 -58 3z m29
-51 c-13 -13 -15 11 -4 40 7 16 8 15 11 -6 2 -13 -1 -28 -7 -34z"/>
</g>
</svg>